<?xml version="1.0" encoding="utf-8"?>
<!-- Generator: Adobe Illustrator 21.0.0, SVG Export Plug-In . SVG Version: 6.00 Build 0)  -->
<svg version="1.1" id="Layer_1" xmlns="http://www.w3.org/2000/svg" xmlns:xlink="http://www.w3.org/1999/xlink" x="0px" y="0px"
	 viewBox="0 0 58 44.6" style="enable-background:new 0 0 58 44.6;" xml:space="preserve">
<style type="text/css">
	.st0{fill:#007AFF;}
</style>
<path class="st0" d="M0.7,24.5C0.2,24.1,0,23.4,0,23s0.2-1.1,0.7-1.6l3.1-3.1c0.9-0.9,2.2-0.9,3.1,0l0.2,0.2l12.3,13.2
	c0.4,0.4,1.1,0.4,1.6,0l29.9-31h0.2l0,0c0.9-0.9,2.2-0.9,3.1,0l3.1,3.1c0.9,0.9,0.9,2.2,0,3.1l0,0l-35.7,37
	c-0.4,0.4-0.9,0.7-1.6,0.7s-1.1-0.2-1.6-0.7L1.1,25.2L0.7,24.5L0.7,24.5z"/>
</svg>
