<?xml version="1.0" encoding="utf-8"?>
<!-- Generator: Adobe Illustrator 21.0.0, SVG Export Plug-In . SVG Version: 6.00 Build 0)  -->
<svg version="1.1" id="Capa_1" xmlns="http://www.w3.org/2000/svg" xmlns:xlink="http://www.w3.org/1999/xlink" x="0px" y="0px"
	 viewBox="0 0 512 512" style="enable-background:new 0 0 512 512;" xml:space="preserve">
<style type="text/css">
	.st0{fill:#FFFFFF;}
</style>
<g>
	<path class="st0" d="M256.1,365.7c-40.3,0-73.1,32.8-73.1,73.1s32.8,73.1,73.1,73.1s73.1-32.8,73.1-73.1S296.5,365.7,256.1,365.7z"
		/>
	<path class="st0" d="M256.1,182.9c-40.3,0-73.1,32.8-73.1,73.1s32.8,73.1,73.1,73.1s73.1-32.8,73.1-73.1S296.5,182.9,256.1,182.9z"
		/>
	<path class="st0" d="M256.1,0C215.8,0,183,32.8,183,73.1s32.8,73.1,73.1,73.1s73.1-32.8,73.1-73.1S296.5,0,256.1,0z"/>
</g>
</svg>
