<?xml version="1.0" encoding="utf-8"?>
<!-- Generator: Adobe Illustrator 21.0.0, SVG Export Plug-In . SVG Version: 6.00 Build 0)  -->
<svg version="1.1" id="Capa_1" xmlns="http://www.w3.org/2000/svg" xmlns:xlink="http://www.w3.org/1999/xlink" x="0px" y="0px"
	 viewBox="0 0 92 92" style="enable-background:new 0 0 92 92;" xml:space="preserve">
<style type="text/css">
	.st0{fill:#25475B;}
</style>
<g>
	<path class="st0" d="M45.4,0.3C20.2,0.7,0,21.4,0.3,46.6C0.7,71.8,21.4,92,46.6,91.7C71.8,91.3,92,70.6,91.7,45.4
		C91.3,20.2,70.6,0,45.4,0.3z M45.3,73.8l-0.3,0c-3.9-0.1-6.6-3-6.5-6.8c0.1-3.8,2.9-6.5,6.7-6.5l0.2,0c4,0.1,6.7,3,6.6,6.9
		C51.9,71.2,49.1,73.8,45.3,73.8z M61.6,41.4c-0.9,1.3-2.9,2.9-5.5,4.9l-2.8,1.9c-1.5,1.2-2.5,2.3-2.8,3.4c-0.3,0.9-0.4,1.1-0.4,2.9
		l0,0.4H39.5l0-0.9c0.1-3.7,0.2-5.9,1.8-7.7c2.4-2.8,7.7-6.2,7.9-6.4c0.8-0.6,1.4-1.2,1.9-1.9c1.1-1.5,1.6-2.8,1.6-3.9
		c0-1.7-0.5-3.2-1.5-4.5c-0.9-1.3-2.7-2-5.3-2c-2.5,0-4.3,0.8-5.3,2.5c-1.1,1.7-1.6,3.5-1.6,5.3v0.5h-11l0-0.5
		c0.3-6.7,2.7-11.6,7.1-14.4c2.8-1.8,6.3-2.7,10.3-2.7c5.3,0,9.8,1.3,13.3,3.8c3.6,2.6,5.4,6.4,5.4,11.5
		C64.2,36.3,63.4,39,61.6,41.4z"/>
</g>
</svg>
